<?xml version="1.0" encoding="UTF-8" standalone="no"?>
<svg
   xmlns:dc="http://purl.org/dc/elements/1.1/"
   xmlns:cc="http://creativecommons.org/ns#"
   xmlns:rdf="http://www.w3.org/1999/02/22-rdf-syntax-ns#"
   xmlns:svg="http://www.w3.org/2000/svg"
   xmlns="http://www.w3.org/2000/svg"
   version="1.1"
   id="svg2"
   viewBox="0 0 244.44864 211.69869"
   height="59.746075mm"
   width="68.988838mm">
  <defs
     id="defs4" />
  <metadata
     id="metadata7">
    <rdf:RDF>
      <cc:Work
         rdf:about="">
        <dc:format>image/svg+xml</dc:format>
        <dc:type
           rdf:resource="http://purl.org/dc/dcmitype/StillImage" />
        <dc:title></dc:title>
      </cc:Work>
    </rdf:RDF>
  </metadata>
  <g
     transform="translate(-16.663493,-135.08424)"
     id="layer1">
    <path
       d="m 138.88784,240.93358 -61.112143,0 -61.112143,0 30.55607,-52.92467 30.556072,-52.92467 30.556074,52.92467 z"
       id="path4144"
       style="fill:#afdde9;fill-opacity:1" />
    <path
       transform="matrix(0.5,0.8660254,-0.8660254,0.5,-61.434982,375.83143)"
       d="m -16.663539,-240.93356 -61.112141,0 -61.11214,0 30.55607,-52.92467 30.55607,-52.92467 30.55607,52.92467 z"
       id="path4144-3"
       style="fill:#afdde9;fill-opacity:1" />
    <path
       d="m 261.11213,240.93358 -61.11214,0 -61.11215,0 30.55607,-52.92467 30.55608,-52.92467 30.55607,52.92467 z"
       id="path4144-6"
       style="fill:#afdde9;fill-opacity:1" />
    <path
       transform="scale(-1,-1)"
       d="m -138.88781,-240.93359 -61.11214,0 -61.11215,0 30.55607,-52.92467 30.55608,-52.92467 30.55607,52.92467 z"
       id="path4144-7"
       style="fill:#afdde9;fill-opacity:1" />
    <path
       transform="matrix(-0.5,-0.8660254,0.8660254,-0.5,-61.434982,375.83143)"
       d="m 16.663541,240.93358 -61.112141,0 -61.11214,0 30.556068,-52.92467 30.556072,-52.92467 30.55607,52.92467 z"
       id="path4144-3-5"
       style="fill:#afdde9;fill-opacity:1" />
    <path
       transform="scale(-1,-1)"
       d="m -16.663493,-240.93359 -61.112141,0 -61.112146,0 30.55607,-52.92467 30.556076,-52.92467 30.55607,52.92467 z"
       id="path4144-6-3"
       style="fill:#afdde9;fill-opacity:1" />
    <text
       transform="scale(-1,-1)"
       id="text4197"
       y="-139.08426"
       x="-161.77116"
       style="font-style:normal;font-weight:normal;font-size:40px;line-height:125%;font-family:sans-serif;letter-spacing:0px;word-spacing:0px;fill:#000000;fill-opacity:1;stroke:none;stroke-width:1px;stroke-linecap:butt;stroke-linejoin:miter;stroke-opacity:1"
       xml:space="preserve"><tspan
         style="font-size:70px"
         y="-139.08426"
         x="-161.77116"
         id="tspan4199">1</tspan></text>
    <text
       transform="matrix(-0.5,-0.8660254,0.8660254,-0.5,0,0)"
       id="text4219"
       y="101.66289"
       x="-299.42667"
       style="font-style:normal;font-weight:normal;font-size:70px;line-height:125%;font-family:sans-serif;letter-spacing:0px;word-spacing:0px;fill:#000000;fill-opacity:1;stroke:none;stroke-width:1px;stroke-linecap:butt;stroke-linejoin:miter;stroke-opacity:1"
       xml:space="preserve"><tspan
         y="101.66289"
         x="-299.42667"
         id="tspan4221">2</tspan></text>
    <text
       transform="matrix(0.5,-0.8660254,0.8660254,0.5,0,0)"
       id="text4223"
       y="341.60529"
       x="-161.34204"
       style="font-style:normal;font-weight:normal;font-size:70px;line-height:125%;font-family:sans-serif;letter-spacing:0px;word-spacing:0px;fill:#000000;fill-opacity:1;stroke:none;stroke-width:1px;stroke-linecap:butt;stroke-linejoin:miter;stroke-opacity:1"
       xml:space="preserve"><tspan
         y="341.60529"
         x="-161.34204"
         id="tspan4225">3</tspan></text>
    <text
       id="text4227"
       y="342.78293"
       x="116.87611"
       style="font-style:normal;font-weight:normal;font-size:70px;line-height:125%;font-family:sans-serif;letter-spacing:0px;word-spacing:0px;fill:#000000;fill-opacity:1;stroke:none;stroke-width:1px;stroke-linecap:butt;stroke-linejoin:miter;stroke-opacity:1"
       xml:space="preserve"><tspan
         y="342.78293"
         x="116.87611"
         id="tspan4229">4</tspan></text>
    <text
       transform="matrix(0.5,0.8660254,-0.8660254,0.5,0,0)"
       id="text4231"
       y="101.04459"
       x="256.18933"
       style="font-style:normal;font-weight:normal;font-size:70px;line-height:125%;font-family:sans-serif;letter-spacing:0px;word-spacing:0px;fill:#000000;fill-opacity:1;stroke:none;stroke-width:1px;stroke-linecap:butt;stroke-linejoin:miter;stroke-opacity:1"
       xml:space="preserve"><tspan
         y="101.04459"
         x="256.18933"
         id="tspan4233">5</tspan></text>
    <text
       transform="matrix(-0.5,0.8660254,-0.8660254,-0.5,0,0)"
       id="text4231-2"
       y="-139.88907"
       x="116.70334"
       style="font-style:normal;font-weight:normal;font-size:70px;line-height:125%;font-family:sans-serif;letter-spacing:0px;word-spacing:0px;fill:#000000;fill-opacity:1;stroke:none;stroke-width:1px;stroke-linecap:butt;stroke-linejoin:miter;stroke-opacity:1"
       xml:space="preserve"><tspan
         y="-139.88907"
         x="116.70334"
         id="tspan4233-9">6</tspan></text>
  </g>
</svg>
