<?xml version="1.0" encoding="UTF-8" standalone="no"?>
<svg
   xmlns:dc="http://purl.org/dc/elements/1.1/"
   xmlns:cc="http://creativecommons.org/ns#"
   xmlns:rdf="http://www.w3.org/1999/02/22-rdf-syntax-ns#"
   xmlns:svg="http://www.w3.org/2000/svg"
   xmlns="http://www.w3.org/2000/svg"
   width="68.988838mm"
   height="59.746075mm"
   viewBox="0 0 244.44864 211.69869"
   id="svg2"
   version="1.1">
  <defs
     id="defs4" />
  <metadata
     id="metadata7">
    <rdf:RDF>
      <cc:Work
         rdf:about="">
        <dc:format>image/svg+xml</dc:format>
        <dc:type
           rdf:resource="http://purl.org/dc/dcmitype/StillImage" />
        <dc:title></dc:title>
      </cc:Work>
    </rdf:RDF>
  </metadata>
  <path
     d="m 122.22435,105.84934 -61.112146,0 -61.112143,0 L 30.556131,52.92467 61.112203,0 91.668277,52.92467 Z"
     id="path4144"
     style="fill:#cccccc;fill-opacity:0" />
  <path
     d="M 122.22434,105.84936 91.668268,52.924696 61.112198,3.0129372e-5 122.22434,2.787355e-5 183.33648,2.5617728e-5 152.78041,52.924693 Z"
     id="path4144-3"
     style="fill:#cccccc;fill-opacity:0" />
  <path
     d="m 244.44864,105.84934 -61.11214,0 -61.11215,0 L 152.78042,52.92467 183.3365,0 213.89257,52.92467 Z"
     id="path4144-6"
     style="fill:#cccccc;fill-opacity:0" />
  <path
     d="m 122.22432,105.84935 61.11214,0 61.11215,0 -30.55607,52.92467 -30.55608,52.92467 -30.55607,-52.92467 z"
     id="path4144-7"
     style="fill:#cccccc;fill-opacity:0" />
  <path
     d="m 122.22435,105.84935 30.55607,52.92467 30.55607,52.92466 -61.11214,1e-5 -61.112142,0 30.556073,-52.92467 z"
     id="path4144-3-5"
     style="fill:#cccccc;fill-opacity:0" />
  <path
     d="m 0,105.84935 61.112141,0 61.112149,0 -30.556073,52.92467 -30.556076,52.92467 -30.55607,-52.92467 z"
     id="path4144-6-3"
     style="fill:#cccccc;fill-opacity:0" />
</svg>
